<?xml version="1.0" encoding="UTF-8"?>
<svg id="_Слой_2" data-name="Слой 2" xmlns="http://www.w3.org/2000/svg" viewBox="0 0 36.02 26.01">
  <path fill="#090" d="m4.76,16.51h31.26v5.46c0,2.23-1.81,4.04-4.04,4.04H4.85c-.03-3.17-.07-6.33-.1-9.5Z"/>
  <path fill="#090" d="m27.76,26.01c-7.9,0-15.81,0-23.71,0C1.81,26.01,0,24.2,0,21.97v-5.46h27.7c.02,3.17.03,6.33.05,9.5Z"/>
  <path fill="#f20" d="m0,11.71h36.02v11.04H0"/>
  <path fill="#fff" d="m0,15.29h36v5.83H0"/>
  <path fill="#19f" d="m8.54.02c7.83,0,15.66-.02,23.48-.02,2.2,0,3.98,1.79,3.98,3.99v15.51H8.71c-.06-6.5-.11-12.99-.17-19.48Z"/>
  <path fill="#19f" d="m30.66,19.5H0V3.99C0,1.79,1.78,0,3.98,0h26.56c.04,6.5.08,13,.12,19.5Z"/>
  <circle fill="#fff" cx="18.37" cy="9.75" r="5.28"/>
</svg>
